<svg xmlns="http://www.w3.org/2000/svg" width="106.293" height="99.432" viewBox="0 0 106.293 99.432">
  <g id="board" transform="translate(0.001 -16.007)">
    <g id="Group_230" data-name="Group 230" transform="translate(-0.001 16.007)">
      <path id="Path_4609" data-name="Path 4609" d="M104.576,87.175V23.7A4.27,4.27,0,0,0,102,16.007H4.287A4.27,4.27,0,0,0,1.715,23.7V87.175a4.27,4.27,0,0,0,2.572,7.692H25.311L14.183,105.981a5.145,5.145,0,0,0,7.277,7.276L39.633,95.067a1.552,1.552,0,0,0,.141-.2H48V110.3a5.143,5.143,0,0,0,10.286,0V94.867h8.237a1.57,1.57,0,0,0,.132.2L84.83,113.257a5.145,5.145,0,0,0,7.276-7.277L80.98,94.867H102a4.271,4.271,0,0,0,2.572-7.692ZM19.03,110.833a1.766,1.766,0,0,1-2.428,0,1.714,1.714,0,0,1,0-2.425h0l13.56-13.54h4.822Zm35.83-.537a1.714,1.714,0,1,1-3.429,0V94.867H54.86Zm34.824-1.886a1.714,1.714,0,0,1,0,2.425l0,0a1.764,1.764,0,0,1-2.426,0L71.306,94.867h4.822ZM102,91.438H4.287a.857.857,0,1,1,0-1.714H102a.857.857,0,1,1,0,1.714ZM5.144,86.3V24.579h96V86.3ZM102,21.15H4.287a.857.857,0,1,1,0-1.714H102a.857.857,0,1,1,0,1.714Z" transform="translate(0.001 -16.007)" fill="#007ab5"/>
    </g>
  </g>
</svg>
