<svg xmlns="http://www.w3.org/2000/svg" width="138.433" height="99.321" viewBox="0 0 138.433 99.321">
  <g id="book" transform="translate(0 -58.303)">
    <g id="Group_229" data-name="Group 229" transform="translate(0 58.303)">
      <path id="Path_4608" data-name="Path 4608" d="M135.75,66.568h-9.123V63.456a2.683,2.683,0,0,0-1.932-2.683A75.585,75.585,0,0,0,105.348,58.3c-10.733,0-25.358,2.415-36.171,13.417C58.443,60.611,43.712,58.3,33.005,58.3a75.585,75.585,0,0,0-19.347,2.469,2.683,2.683,0,0,0-1.932,2.683v3.086H2.683A2.683,2.683,0,0,0,0,69.225v85.706a2.677,2.677,0,0,0,4,2.334c.268-.134,27.1-14.812,64.561-5.367H69.2a2.685,2.685,0,0,0,.644,0c37.567-9.526,64.4,5.125,64.561,5.367a2.683,2.683,0,0,0,4.025-2.308V69.252A2.683,2.683,0,0,0,135.75,66.568ZM5.367,150.664V71.935H11.78v67.3a2.683,2.683,0,0,0,3.086,2.683,117.43,117.43,0,0,1,16.771-1.342,69.6,69.6,0,0,1,22.916,3.462A98.646,98.646,0,0,0,5.367,150.664Zm26.27-15.429a118.063,118.063,0,0,0-14.6.939v-70.6A74.008,74.008,0,0,1,32.951,63.8c10.036,0,23.882,2.308,33.488,13.148l.081,66.842C60.939,140.145,50.044,135.235,31.637,135.235Zm40.25-58.282C81.493,66.219,95.339,63.8,105.375,63.8a74.332,74.332,0,0,1,15.912,1.771v70.6a118.031,118.031,0,0,0-14.517-.966c-18.3,0-29.222,4.911-34.883,8.56Zm61.153,73.711a98.666,98.666,0,0,0-49.293-6.628,69.77,69.77,0,0,1,23.023-3.462,117.392,117.392,0,0,1,16.878,1.315,2.683,2.683,0,0,0,3.086-2.683V71.935h6.413Z" transform="translate(0 -58.303)" fill="#007ab5"/>
    </g>
  </g>
</svg>
