<svg xmlns="http://www.w3.org/2000/svg" width="28.257" height="39.124" viewBox="0 0 28.257 39.124">
  <g id="Group_94" data-name="Group 94" transform="translate(-321 -4474.219)">
    <g id="Group_89" data-name="Group 89" transform="translate(321 4474.218)">
      <g id="Group_82" data-name="Group 82" transform="translate(5.381 5.146)">
        <g id="Group_81" data-name="Group 81" transform="translate(0 0)">
          <path id="Path_51" data-name="Path 51" d="M150.869,68.621a8.787,8.787,0,0,0-6.306-2.635A8.918,8.918,0,0,0,138.256,81.2a8.787,8.787,0,0,0,6.306,2.635,8.918,8.918,0,0,0,6.306-15.217Zm-.91,11.671a7.65,7.65,0,1,1,2.228-5.4A7.688,7.688,0,0,1,149.959,80.293Z" transform="translate(-135.652 -65.986)" fill="#2cb46d"/>
        </g>
      </g>
      <g id="Group_87" data-name="Group 87" transform="translate(0 0)">
        <g id="Group_86" data-name="Group 86">
          <g id="Group_85" data-name="Group 85">
            <path id="Path_53" data-name="Path 53" d="M314.893,307.079c.018-.037-.024.037,0,0Z" transform="translate(-295.62 -282.983)" fill="#2cb46d"/>
            <path id="Path_54" data-name="Path 54" d="M97.157,16.314c-.188-.282-1.318-2.2-1.224-2.071l1.318-2.29a1.989,1.989,0,0,0,.188-1.569,2.024,2.024,0,0,0-.973-1.255A.11.11,0,0,0,96.4,9.1a.031.031,0,0,1-.031-.031h-.031l-2.008-1.1V5.333a2.088,2.088,0,0,0-.6-1.475l-.031-.031a2.25,2.25,0,0,0-1.443-.565H92.2l-2.384.031L88.5,1.034A2.139,2.139,0,0,0,87.243.062a2.145,2.145,0,0,0-1.569.22.031.031,0,0,0-.031.031l-.031.031H85.58L83.572,1.536l-.188.094-.157-.063L81.219.376h-.031V.313a.031.031,0,0,1-.031-.031,2.145,2.145,0,0,0-1.569-.22,2.024,2.024,0,0,0-1.255.973L77.015,3.293,74.6,3.262h-.063a2.106,2.106,0,0,0-1.412.565l-.031.031a2.034,2.034,0,0,0-.6,1.475V7.968L70.457,9.1h-.031a.031.031,0,0,0-.031.031.1.1,0,0,1-.063.031,2.086,2.086,0,0,0-.784,2.824l1.286,2.259L69.61,16.282l-.031.031a.031.031,0,0,1-.031.031,2.145,2.145,0,0,0-.22,1.569,2.024,2.024,0,0,0,.973,1.255l2.259,1.318-.031,2.384v.063a2.088,2.088,0,0,0,.6,1.475,2.014,2.014,0,0,0,1.443.6H77.2l1.129,2.039a.031.031,0,0,0,.031.031v.031a.11.11,0,0,0,.031.063,2.074,2.074,0,0,0,.69.69v10.6a.655.655,0,0,0,.251.5.646.646,0,0,0,.91-.094l3.012-3.8.063-.094.063.094,3.012,3.8a.62.62,0,0,0,.91.094.655.655,0,0,0,.251-.5V27.86a2.074,2.074,0,0,0,.69-.69c.031-.031,1.224-2.228,1.224-2.2h2.635a1.962,1.962,0,0,0,1.443-.6,2.109,2.109,0,0,0,.6-1.475c0,.063-.031-2.416-.031-2.447l2.259-1.318a2.04,2.04,0,0,0,.753-2.824C97.188,16.377,97.157,16.314,97.157,16.314ZM83.886,33.57a.8.8,0,0,0-.973,0c-.031.031-.094.063-.125.125l-2.353,2.949V28.236a2.121,2.121,0,0,0,.722-.22h.031c.031,0,.031-.031.063-.031l2.1-1.224,2.1,1.224c.031,0,.031.031.063.031h.031a1.931,1.931,0,0,0,.722.22l.063,8.408C83.823,33.507,83.98,33.664,83.886,33.57ZM96.153,17.6a.693.693,0,0,1-.345.439l-2.635,1.537a.629.629,0,0,0-.314.565c0,.753.031,2.541.031,2.824a.75.75,0,0,1-.753.753H89.157a.673.673,0,0,0-.6.345l-.021.033c-.032.066-.253.477-1.359,2.446a.67.67,0,0,1-.439.345.794.794,0,0,1-.533-.063l-2.6-1.506a.53.53,0,0,0-.157-.063.24.24,0,0,0-.157.063l-2.6,1.506a.773.773,0,0,1-.533.063.693.693,0,0,1-.439-.345c0-.031-.031-.031-.031-.063l-1.318-2.353a.673.673,0,0,0-.6-.345H74.787a.75.75,0,0,1-.753-.753v-.063l.031-2.792a.622.622,0,0,0-.314-.565l-2.6-1.506a.67.67,0,0,1-.345-.439.7.7,0,0,1,.063-.565l.031-.031v-.031l1.412-2.353a.623.623,0,0,0,0-.659l-1.506-2.6a.719.719,0,0,1-.063-.565.693.693,0,0,1,.345-.439l.031-.031h.031a.031.031,0,0,0,.031-.031l2.384-1.318a.673.673,0,0,0,.345-.6V5.458a.757.757,0,0,1,.22-.533l.031-.031a.713.713,0,0,1,.5-.188h.063l2.792.031a.622.622,0,0,0,.565-.314l1.349-2.73a.67.67,0,0,1,.439-.345.7.7,0,0,1,.565.063l.031.031c.031,0,.031.031.063.031l2.322,1.38a.948.948,0,0,0,.5.157,1.042,1.042,0,0,0,.5-.157l2.353-1.38c.031,0,.031-.031.063-.031l.031-.031a.719.719,0,0,1,.565-.063.693.693,0,0,1,.439.345l1.506,2.6a.629.629,0,0,0,.565.314l2.792-.031h.063a.713.713,0,0,1,.5.188.031.031,0,0,0,.031.031.757.757,0,0,1,.22.533V8.313a.673.673,0,0,0,.345.6l2.384,1.318a.031.031,0,0,1,.031.031h.031l.031.031a.67.67,0,0,1,.345.439.719.719,0,0,1-.063.565l-1.475,2.635a.623.623,0,0,0,0,.659c.03.03,1.344,2.266,1.413,2.385A.7.7,0,0,1,96.153,17.6Z" transform="translate(-69.266 0)" fill="#2cb46d"/>
            <path id="Path_55" data-name="Path 55" d="M410.454,216.387h0C410.458,216.395,410.458,216.394,410.454,216.387Z" transform="translate(-383.692 -199.414)" fill="#2cb46d"/>
          </g>
        </g>
      </g>
    </g>
    <g id="Group_88" data-name="Group 88" transform="translate(331.762 4486.897)">
      <line id="Line_1" data-name="Line 1" x2="6" transform="translate(0.238 0.487)" fill="none" stroke="#14a8f0" stroke-linecap="round" stroke-width="0.8"/>
      <line id="Line_2" data-name="Line 2" x2="5.177" transform="translate(0.729 2.655)" fill="none" stroke="#14a8f0" stroke-linecap="round" stroke-width="0.8"/>
    </g>
  </g>
</svg>
