<svg xmlns="http://www.w3.org/2000/svg" width="64.13" height="88.791" viewBox="0 0 64.13 88.791">
  <g id="Group_99" data-name="Group 99" transform="translate(-321 -4474.218)">
    <g id="Group_89" data-name="Group 89" transform="translate(321 4474.218)">
      <g id="Group_82" data-name="Group 82" transform="translate(12.212 11.679)">
        <g id="Group_81" data-name="Group 81" transform="translate(0 0)">
          <path id="Path_51" data-name="Path 51" d="M170.186,71.967a19.942,19.942,0,0,0-14.312-5.981,20.24,20.24,0,0,0-14.312,34.534,19.942,19.942,0,0,0,14.312,5.981,20.24,20.24,0,0,0,14.312-34.534Zm-2.065,26.488a17.362,17.362,0,1,1,5.056-12.247A17.449,17.449,0,0,1,168.121,98.455Z" transform="translate(-135.652 -65.986)" fill="#2cb46d"/>
        </g>
      </g>
      <g id="Group_87" data-name="Group 87" transform="translate(0 0)">
        <g id="Group_86" data-name="Group 86">
          <g id="Group_85" data-name="Group 85">
            <path id="Path_53" data-name="Path 53" d="M314.9,307.093c.042-.085-.055.083,0,0Z" transform="translate(-271.163 -252.407)" fill="#2cb46d"/>
            <path id="Path_54" data-name="Path 54" d="M132.565,37.024c-.427-.641-2.991-4.984-2.777-4.7l2.991-5.2a4.513,4.513,0,0,0,.427-3.56A4.594,4.594,0,0,0,131,20.718a.249.249,0,0,0-.142-.071.07.07,0,0,1-.071-.071h-.071l-4.557-2.492V12.1A4.739,4.739,0,0,0,124.8,8.756l-.071-.071A5.105,5.105,0,0,0,121.457,7.4h-.142l-5.412.071-2.991-5.127A4.854,4.854,0,0,0,110.064.14a4.868,4.868,0,0,0-3.56.5.07.07,0,0,0-.071.071l-.071.071h-.071l-4.557,2.706-.427.214-.356-.142L96.393.852h-.071V.71A.07.07,0,0,1,96.25.639a4.868,4.868,0,0,0-3.56-.5,4.594,4.594,0,0,0-2.848,2.207L86.851,7.474,81.369,7.4h-.142a4.78,4.78,0,0,0-3.2,1.282l-.071.071A4.617,4.617,0,0,0,76.6,12.1v5.981L71.97,20.647H71.9a.07.07,0,0,0-.071.071.22.22,0,0,1-.142.071A4.735,4.735,0,0,0,69.9,27.2l2.919,5.127-2.777,4.628-.071.071a.07.07,0,0,1-.071.071,4.868,4.868,0,0,0-.5,3.56A4.594,4.594,0,0,0,71.613,43.5l5.127,2.991-.071,5.412v.142A4.739,4.739,0,0,0,78.022,55.4,4.571,4.571,0,0,0,81.3,56.748h5.981l2.563,4.628a.07.07,0,0,0,.071.071v.071a.249.249,0,0,0,.071.142,4.707,4.707,0,0,0,1.566,1.567V87.295a1.486,1.486,0,0,0,.57,1.139,1.467,1.467,0,0,0,2.065-.214l6.836-8.616.142-.214.142.214,6.836,8.616a1.407,1.407,0,0,0,2.065.214,1.487,1.487,0,0,0,.57-1.139V63.228a4.706,4.706,0,0,0,1.566-1.567c.071-.071,2.777-5.056,2.777-4.984H121.1a4.452,4.452,0,0,0,3.275-1.353,4.787,4.787,0,0,0,1.353-3.347c0,.142-.071-5.483-.071-5.554l5.127-2.991a4.63,4.63,0,0,0,1.709-6.408C132.636,37.167,132.565,37.024,132.565,37.024Zm-30.12,39.163a1.816,1.816,0,0,0-2.207,0c-.071.071-.214.142-.285.285l-5.34,6.693V64.082a4.815,4.815,0,0,0,1.638-.5h.071c.071,0,.071-.071.142-.071l4.771-2.777,4.771,2.777c.071,0,.071.071.142.071h.071a4.382,4.382,0,0,0,1.638.5L108,83.165C102.3,76.044,102.659,76.4,102.445,76.187Zm27.841-36.243a1.572,1.572,0,0,1-.783,1l-5.981,3.489a1.429,1.429,0,0,0-.712,1.282c0,1.709.071,5.768.071,6.408a1.7,1.7,0,0,1-1.709,1.709h-6.764a1.527,1.527,0,0,0-1.353.783l-.048.075c-.073.149-.574,1.082-3.085,5.55a1.52,1.52,0,0,1-1,.783,1.8,1.8,0,0,1-1.21-.142L101.8,57.46a1.2,1.2,0,0,0-.356-.142.544.544,0,0,0-.356.142l-5.91,3.418a1.754,1.754,0,0,1-1.21.142,1.572,1.572,0,0,1-1-.783c0-.071-.071-.071-.071-.142l-2.991-5.34a1.527,1.527,0,0,0-1.353-.783H81.8a1.7,1.7,0,0,1-1.709-1.709V52.12l.071-6.337a1.411,1.411,0,0,0-.712-1.282l-5.91-3.418a1.52,1.52,0,0,1-.783-1A1.6,1.6,0,0,1,72.9,38.8l.071-.071v-.071l3.2-5.34a1.414,1.414,0,0,0,0-1.5l-3.418-5.91a1.632,1.632,0,0,1-.142-1.282,1.572,1.572,0,0,1,.783-1l.071-.071h.071a.07.07,0,0,0,.071-.071L79.019,20.5a1.527,1.527,0,0,0,.783-1.353V12.387a1.718,1.718,0,0,1,.5-1.21l.071-.071a1.617,1.617,0,0,1,1.139-.427h.142l6.337.071a1.411,1.411,0,0,0,1.282-.712l3.062-6.195a1.52,1.52,0,0,1,1-.783,1.6,1.6,0,0,1,1.282.142l.071.071c.071,0,.071.071.142.071L100.1,6.477a2.152,2.152,0,0,0,1.139.356,2.364,2.364,0,0,0,1.139-.356l5.34-3.133c.071,0,.071-.071.142-.071l.071-.071a1.632,1.632,0,0,1,1.282-.142,1.572,1.572,0,0,1,1,.783l3.418,5.91a1.429,1.429,0,0,0,1.282.712l6.337-.071h.142a1.617,1.617,0,0,1,1.139.427.07.07,0,0,0,.071.071,1.718,1.718,0,0,1,.5,1.21v6.764a1.527,1.527,0,0,0,.783,1.353l5.412,2.991a.07.07,0,0,1,.071.071h.071l.071.071a1.52,1.52,0,0,1,.783,1,1.632,1.632,0,0,1-.142,1.282L126.8,31.613a1.414,1.414,0,0,0,0,1.5c.067.067,3.051,5.143,3.206,5.414A1.591,1.591,0,0,1,130.286,39.944Z" transform="translate(-69.266 0)" fill="#2cb46d"/>
            <path id="Path_55" data-name="Path 55" d="M410.455,216.388l0,0C410.465,216.406,410.464,216.4,410.455,216.388Z" transform="translate(-349.718 -177.867)" fill="#2cb46d"/>
          </g>
        </g>
      </g>
    </g>
    <g id="Group_88" data-name="Group 88" transform="translate(345.965 4504.1)">
      <line id="Line_1" data-name="Line 1" x2="14" transform="translate(-0.028 0.119)" fill="none" stroke="#14a8f0" stroke-linecap="round" stroke-width="3"/>
      <line id="Line_2" data-name="Line 2" x2="11.749" transform="translate(1.114 4.921)" fill="none" stroke="#14a8f0" stroke-linecap="round" stroke-width="3"/>
    </g>
  </g>
</svg>
