<svg xmlns="http://www.w3.org/2000/svg" width="91.183" height="153" viewBox="0 0 91.183 153">
  <g id="Group_14" data-name="Group 14" transform="translate(2 2)">
    <g id="Group_13" data-name="Group 13" transform="translate(0 0)">
      <path id="Path_5" data-name="Path 5" d="M93.142,86.5l14.576,58.442a.916.916,0,0,1-1.537.868L95.1,134.731a2.337,2.337,0,0,0-2.25-.6,2.9,2.9,0,0,0-1.784,2.079L86.107,155.2a.916.916,0,0,1-.834.683.935.935,0,0,1-.907-.584L72.685,125.109a.917.917,0,0,1,.856-1.246h.326V119.6H61.73v4.265h.346a.9.9,0,0,1,.934.916.909.909,0,0,1-.183.55l-11.6,29.977a.917.917,0,0,1-1.742-.1l-4.967-18.994a2.874,2.874,0,0,0-1.74-2.065,2.147,2.147,0,0,0-2.279.583L29.413,145.808a.916.916,0,0,1-1.537-.868L42.453,86.5a43.593,43.593,0,1,1,50.689,0ZM68.713,117.763h6.07a.916.916,0,0,1,.916.916v6.1a.918.918,0,0,1-.823.912l10.177,26.3L89.3,135.748a4.73,4.73,0,0,1,2.981-3.358,4.114,4.114,0,0,1,4.118,1.044l8.744,8.746L91.531,87.619c-.3.2-.619.368-.927.559-.42.26-.839.518-1.264.762-.513.293-1.033.568-1.559.839-.431.225-.863.453-1.3.661-.535.255-1.077.487-1.62.72-.442.191-.881.385-1.332.559-.555.216-1.119.407-1.682.6-.449.154-.892.315-1.345.454-.581.178-1.173.326-1.761.478-.445.115-.889.244-1.337.346-.621.141-1.248.247-1.872.361-.427.077-.852.169-1.282.233-.7.1-1.412.172-2.12.242-.363.037-.722.09-1.085.117-.773.057-1.552.073-2.33.09v23.124ZM30.455,142.178l8.748-8.741a3.992,3.992,0,0,1,4.164-1.022,4.7,4.7,0,0,1,2.924,3.336L50.54,152,60.72,125.69a.915.915,0,0,1-.824-.912v-6.1a.916.916,0,0,1,.916-.916h6.07V94.643c-.779-.016-1.557-.033-2.329-.09-.363-.027-.718-.081-1.079-.117-.711-.071-1.422-.137-2.125-.242-.431-.064-.854-.156-1.281-.233-.627-.114-1.255-.22-1.876-.361-.451-.1-.894-.229-1.343-.346-.586-.152-1.174-.3-1.755-.478-.456-.139-.905-.3-1.356-.458-.561-.191-1.119-.381-1.673-.6-.454-.178-.9-.374-1.347-.566-.535-.229-1.072-.458-1.6-.711-.447-.213-.883-.443-1.325-.672-.515-.267-1.03-.537-1.533-.826-.434-.249-.861-.511-1.288-.775-.3-.187-.614-.354-.912-.55ZM67.8,9.331a41.735,41.735,0,1,0,41.757,41.748A41.8,41.8,0,0,0,67.8,9.331Z" transform="translate(-24.206 -7.5)" fill="#2cb46d" stroke="#2cb46d" stroke-width="4"/>
      <path id="Path_6" data-name="Path 6" d="M61.968,109.436A30.756,30.756,0,1,1,92.724,78.68,30.791,30.791,0,0,1,61.968,109.436Zm0-59.68A28.924,28.924,0,1,0,90.892,78.68,28.956,28.956,0,0,0,61.968,49.756Z" transform="translate(-18.377 -35.102)" fill="#2cb46d" stroke="#2cb46d" stroke-width="4"/>
    </g>
    <path id="Path_9" data-name="Path 9" d="M39.25,54.153,38.672,65.1a1.02,1.02,0,0,0,1.017,1.072,1.029,1.029,0,0,0,.364-.067l10.278-3.932,10.279,3.932a1.019,1.019,0,0,0,1.381-1l-.578-10.95,6.929-8.521a1.019,1.019,0,0,0-.528-1.626L57.18,41.167l-5.995-9.2a1.058,1.058,0,0,0-1.707,0l-5.994,9.2L32.85,44.005a1.019,1.019,0,0,0-.528,1.626Zm5.136-11.118a1.02,1.02,0,0,0,.591-.428l5.354-8.216,5.355,8.216a1.02,1.02,0,0,0,.591.428l9.492,2.533-6.184,7.6a1.021,1.021,0,0,0-.227.7l.516,9.778L50.7,60.135a1.02,1.02,0,0,0-.728,0l-9.179,3.512.516-9.778a1.021,1.021,0,0,0-.227-.7l-6.184-7.6Z" transform="translate(-6.737 -5.905)" fill="#2cb46d" stroke="#2cb46d" stroke-width="4"/>
  </g>
</svg>
