<svg xmlns="http://www.w3.org/2000/svg" width="98.855" height="90.618" viewBox="0 0 98.855 90.618">
  <g id="feedback" transform="translate(0 -21.333)">
    <g id="Group_233" data-name="Group 233" transform="translate(0 21.333)">
      <g id="Group_232" data-name="Group 232">
        <path id="Path_4611" data-name="Path 4611" d="M108.726,132.118h45.309a2.06,2.06,0,0,0,0-4.119H108.726a2.06,2.06,0,0,0,0,4.119Z" transform="translate(-86.071 -107.404)" fill="#007ab5"/>
        <path id="Path_4612" data-name="Path 4612" d="M133.439,256H108.726a2.06,2.06,0,1,0,0,4.119h24.714a2.06,2.06,0,1,0,0-4.119Z" transform="translate(-86.071 -210.691)" fill="#007ab5"/>
        <path id="Path_4613" data-name="Path 4613" d="M90.971,29.571c-.119,0-.235.03-.354.036v-.036a8.248,8.248,0,0,0-8.238-8.238H8.238A8.248,8.248,0,0,0,0,29.571v80.32a2.06,2.06,0,0,0,1.271,1.9,2.035,2.035,0,0,0,.788.157,2.059,2.059,0,0,0,1.456-.6L23.507,91.356H82.38a8.247,8.247,0,0,0,8.238-8.238V48.958l5.929-5.928v0a7.883,7.883,0,0,0-5.575-13.457ZM86.5,83.118a4.123,4.123,0,0,1-4.119,4.119H22.654a2.058,2.058,0,0,0-1.456.6L4.119,104.919V29.571a4.123,4.123,0,0,1,4.119-4.119H82.379A4.123,4.123,0,0,1,86.5,29.571v1.407a7.746,7.746,0,0,0-1.1.9L62.988,54.285H22.654a2.06,2.06,0,0,0,0,4.119H59.684L57.706,68.3a2.06,2.06,0,0,0,2.019,2.464,2.1,2.1,0,0,0,.4-.04l10.294-2.06a2.047,2.047,0,0,0,1.054-.563L86.5,53.077ZM69,64.745l-6.653,1.331,1.331-6.661,18.7-18.7,5.326,5.326ZM93.634,40.118l-3.017,3.017-5.327-5.327,3.018-3.018a3.767,3.767,0,0,1,5.326,5.328Z" transform="translate(0 -21.333)" fill="#007ab5"/>
      </g>
    </g>
  </g>
</svg>
