<svg id="quotation-mark" xmlns="http://www.w3.org/2000/svg" width="69.855" height="64.921" viewBox="0 0 69.855 64.921">
  <path id="Path_4603" data-name="Path 4603" d="M30.077,15.191V26.846a2.862,2.862,0,0,1-2.862,2.862c-5.64,0-8.708,5.784-9.134,17.2h9.134a2.864,2.864,0,0,1,2.862,2.862V74.384a2.862,2.862,0,0,1-2.862,2.862H2.863A2.863,2.863,0,0,1,0,74.384V49.773A63.222,63.222,0,0,1,1.637,34.842,35.917,35.917,0,0,1,6.72,23.026a24.807,24.807,0,0,1,8.636-7.892,24.587,24.587,0,0,1,11.86-2.807A2.865,2.865,0,0,1,30.077,15.191ZM66.993,29.71a2.862,2.862,0,0,0,2.862-2.861V15.19a2.862,2.862,0,0,0-2.862-2.861A23.768,23.768,0,0,0,46.5,23.028a35.882,35.882,0,0,0-5.084,11.819,63.188,63.188,0,0,0-1.637,14.928V74.386a2.863,2.863,0,0,0,2.862,2.862H66.993a2.863,2.863,0,0,0,2.862-2.862V49.775a2.862,2.862,0,0,0-2.862-2.862H57.988C58.408,35.494,61.432,29.71,66.993,29.71Z" transform="translate(0 -12.327)" fill="#575757"/>
</svg>
