<svg id="quotation2" xmlns="http://www.w3.org/2000/svg" width="51.702" height="38.941" viewBox="0 0 51.702 38.941">
  <g id="Group_35" data-name="Group 35" transform="translate(28.923 0)">
    <g id="Group_34" data-name="Group 34">
      <path id="Path_15" data-name="Path 15" d="M10.067,84.8c-.454,3.443-3.5,6.559-9.064,9.275l-1,.489,4.11,7.588.928-.47c11.772-5.967,17.741-14.4,17.741-25.066a13.77,13.77,0,0,0-3.472-9.447,10.956,10.956,0,0,0-8.428-3.955,9.834,9.834,0,0,0-7.374,3.1,10.914,10.914,0,0,0,.03,14.947A11.631,11.631,0,0,0,10.067,84.8ZM5.05,67.79a7.671,7.671,0,0,1,5.829-2.437,8.789,8.789,0,0,1,6.83,3.239,11.541,11.541,0,0,1,2.931,8.025A22.161,22.161,0,0,1,16.55,89.733,32.816,32.816,0,0,1,4.994,99.3L2.935,95.5c6.192-3.245,9.329-7.145,9.329-11.6v-.955l-.949-.107A9.6,9.6,0,0,1,5.1,79.8,8.776,8.776,0,0,1,5.05,67.79Z" transform="translate(0 -63.215)" fill="#b0f3d0"/>
    </g>
  </g>
  <g id="Group_37" data-name="Group 37" transform="translate(0 0)">
    <g id="Group_36" data-name="Group 36">
      <path id="Path_16" data-name="Path 16" d="M296.517,84.765c-.449,3.446-3.467,6.563-8.989,9.279l-.987.485,4.008,7.593.937-.473c11.826-5.967,17.822-14.4,17.822-25.067a13.679,13.679,0,0,0-3.516-9.451,11.074,11.074,0,0,0-8.463-3.951,9.705,9.705,0,0,0-7.34,3.1,10.968,10.968,0,0,0,.075,14.941A11.6,11.6,0,0,0,296.517,84.765ZM291.545,67.75a7.547,7.547,0,0,1,5.784-2.431,8.9,8.9,0,0,1,6.874,3.244,11.452,11.452,0,0,1,2.967,8.02A22.089,22.089,0,0,1,303.061,89.7a32.933,32.933,0,0,1-11.606,9.561l-2-3.8c6.147-3.246,9.262-7.147,9.262-11.607V82.9l-.946-.109a9.528,9.528,0,0,1-6.139-3.027,8.83,8.83,0,0,1-.084-12.017Z" transform="translate(-286.541 -63.181)" fill="#b0f3d0"/>
    </g>
  </g>
</svg>
