<svg xmlns="http://www.w3.org/2000/svg" width="51.702" height="38.942" viewBox="0 0 51.702 38.942">
  <g id="quotation" transform="translate(0 -63.181)">
    <g id="Group_35" data-name="Group 35" transform="translate(0 63.184)">
      <g id="Group_34" data-name="Group 34">
        <path id="Path_15" data-name="Path 15" d="M12.712,80.566c.454-3.443,3.5-6.559,9.064-9.275l1-.489-4.11-7.588-.928.47C5.969,69.653,0,78.086,0,88.751A13.77,13.77,0,0,0,3.472,98.2a10.956,10.956,0,0,0,8.428,3.955,9.833,9.833,0,0,0,7.374-3.1,10.914,10.914,0,0,0-.03-14.947A11.631,11.631,0,0,0,12.712,80.566Zm5.017,17.012a7.671,7.671,0,0,1-5.829,2.437,8.789,8.789,0,0,1-6.83-3.239,11.541,11.541,0,0,1-2.931-8.025A22.162,22.162,0,0,1,6.229,75.635a32.816,32.816,0,0,1,11.556-9.563l2.059,3.8c-6.192,3.245-9.329,7.146-9.329,11.6v.955l.949.107a9.6,9.6,0,0,1,6.216,3.026,8.776,8.776,0,0,1,.05,12.011Z" transform="translate(0 -63.215)" fill="#b0f3d0"/>
      </g>
    </g>
    <g id="Group_37" data-name="Group 37" transform="translate(28.935 63.181)">
      <g id="Group_36" data-name="Group 36" transform="translate(0 0)">
        <path id="Path_16" data-name="Path 16" d="M299.332,80.539c.449-3.446,3.467-6.563,8.989-9.279l.987-.485L305.3,63.181l-.937.473c-11.826,5.967-17.822,14.4-17.822,25.067a13.679,13.679,0,0,0,3.516,9.451,11.074,11.074,0,0,0,8.463,3.951,9.705,9.705,0,0,0,7.34-3.1,10.968,10.968,0,0,0-.075-14.941A11.6,11.6,0,0,0,299.332,80.539ZM304.3,97.553a7.547,7.547,0,0,1-5.784,2.431,8.9,8.9,0,0,1-6.874-3.244,11.452,11.452,0,0,1-2.967-8.02,22.089,22.089,0,0,1,4.109-13.115,32.933,32.933,0,0,1,11.606-9.561l2,3.8c-6.147,3.246-9.262,7.147-9.262,11.607V82.4l.946.109a9.528,9.528,0,0,1,6.139,3.027,8.83,8.83,0,0,1,.084,12.017Z" transform="translate(-286.541 -63.181)" fill="#b0f3d0"/>
      </g>
    </g>
  </g>
</svg>
