<svg xmlns="http://www.w3.org/2000/svg" width="80.045" height="93.999" viewBox="0 0 80.045 93.999">
  <g id="surface1" transform="translate(0 0.001)">
    <path id="Path_48" data-name="Path 48" d="M79.952,25.5l0-.073c-.041-.9-.068-1.858-.085-2.921a9.962,9.962,0,0,0-9.38-9.76c-10.807-.6-19.168-4.127-26.312-11.09L44.112,1.6a6.016,6.016,0,0,0-8.176,0l-.061.058C28.731,8.622,20.371,12.146,9.563,12.75a9.962,9.962,0,0,0-9.38,9.76C.167,23.566.139,24.521.1,25.43l0,.17c-.21,11.021-.471,24.736,4.117,37.185A47.336,47.336,0,0,0,15.567,80.474c5.709,5.571,13.186,9.994,22.223,13.145a6.882,6.882,0,0,0,.911.248,6.727,6.727,0,0,0,2.645,0,6.9,6.9,0,0,0,.914-.249c9.027-3.157,16.5-7.582,22.2-13.152A47.4,47.4,0,0,0,75.816,62.772C80.422,50.286,80.162,36.545,79.952,25.5ZM70.641,60.864C65.8,73.985,55.923,83,40.44,88.411a1.387,1.387,0,0,1-.175.047,1.238,1.238,0,0,1-.485,0,1.373,1.373,0,0,1-.174-.047c-15.5-5.4-25.384-14.41-30.22-27.532C5.158,49.4,5.4,36.813,5.609,25.706v-.062c.043-.955.072-1.954.088-3.053a4.428,4.428,0,0,1,4.173-4.334A48.394,48.394,0,0,0,26.3,14.644,42.974,42.974,0,0,0,39.683,5.651a.509.509,0,0,1,.683,0,42.99,42.99,0,0,0,13.386,8.993,48.4,48.4,0,0,0,16.426,3.613,4.427,4.427,0,0,1,4.172,4.335c.017,1.1.045,2.1.088,3.052C74.649,36.764,74.883,49.365,70.641,60.864Zm0,0" transform="translate(0 0)" fill="#2cb46d"/>
    <path id="Path_49" data-name="Path 49" d="M113.824,128.41a23.426,23.426,0,1,0,23.426,23.426A23.452,23.452,0,0,0,113.824,128.41Zm0,41.336a17.91,17.91,0,1,1,17.91-17.91A17.93,17.93,0,0,1,113.824,169.746Zm0,0" transform="translate(-73.802 -104.836)" fill="#2cb46d"/>
    <path id="Path_50" data-name="Path 50" d="M172.215,212.8,161.334,223.68l-2.953-2.953a2.758,2.758,0,0,0-3.9,3.9l4.9,4.9a2.758,2.758,0,0,0,3.9,0L176.115,216.7a2.758,2.758,0,1,0-3.9-3.9Zm0,0" transform="translate(-125.46 -173.072)" fill="#2cb46d"/>
  </g>
</svg>
