<svg xmlns="http://www.w3.org/2000/svg" width="86" height="121.326" viewBox="0 0 86 121.326">
  <g id="student" transform="translate(-72.296)">
    <g id="Group_231" data-name="Group 231" transform="translate(72.296)">
      <path id="Path_4610" data-name="Path 4610" d="M152.432,80.136V67.506L147.1,69.58l-.016-.035-.127-.231a13.72,13.72,0,0,0-9.065-6.067l-12.826-2.334V59.9a19.58,19.58,0,0,0,9.4-13.154,7.831,7.831,0,0,0,6.233-7.656V19.786a12.257,12.257,0,0,0-8.756-11.76l-.977-.977A24.067,24.067,0,0,0,89.887,24.066V39.091a7.831,7.831,0,0,0,6.233,7.656,19.582,19.582,0,0,0,9.4,13.154v1.012L92.7,63.245a13.724,13.724,0,0,0-9.061,6.061l-.117.285L78.16,67.506v12.63A5.871,5.871,0,0,0,72.3,86v7.818a5.871,5.871,0,0,0,5.864,5.864v7.2L115.3,121.326l37.136-14.444v-7.2a5.871,5.871,0,0,0,5.864-5.864V86A5.871,5.871,0,0,0,152.432,80.136Zm-23.7-14.583,8.463,1.538a9.792,9.792,0,0,1,6.171,3.94l-18.91,7.353ZM109.6,61.693a19.472,19.472,0,0,0,11.395,0l-5.7,4.273Zm2.723,6.927-3.989,3.987-2.588-7.761,1.245-.225Zm11.282-4,1.245.225-2.588,7.761-3.989-3.987Zm11.239-22.166V35.725a3.875,3.875,0,0,1,0,6.731Zm-39.091,0a3.875,3.875,0,0,1,0-6.731Zm0-13.138V31.55a7.752,7.752,0,0,0-1.955.809V24.066A20.157,20.157,0,0,1,128.208,9.814l1.724,1.726.526.129a8.353,8.353,0,0,1,6.339,8.117V32.359a7.681,7.681,0,0,0-1.955-.809V29.318h-6.2a17,17,0,0,1-13.535-6.765l-1.554-2.076-3.884,3.886a16.816,16.816,0,0,1-11.966,4.955ZM99.66,43V33.137a20.688,20.688,0,0,0,12.775-6.01l.76-.76a20.937,20.937,0,0,0,15.449,6.86h2.289V43A15.636,15.636,0,1,1,99.66,43ZM93.4,67.092l8.463-1.538,4.277,12.832L87.223,71.03A9.79,9.79,0,0,1,93.4,67.092ZM76.205,93.818V86a1.957,1.957,0,0,1,1.955-1.955,5.864,5.864,0,1,1,0,11.727A1.957,1.957,0,0,1,76.205,93.818Zm37.136,22.551L82.069,104.21V98.853a9.753,9.753,0,0,0,0-17.888V73.221l31.273,12.161Zm-5.8-37.437,7.758-7.76,7.758,7.758L115.3,81.948Zm40.985,25.276L117.25,116.368V85.382l31.273-12.161v7.744a9.753,9.753,0,0,0,0,17.888Zm5.864-10.39a1.957,1.957,0,0,1-1.955,1.955,5.864,5.864,0,0,1,0-11.727A1.957,1.957,0,0,1,154.387,86Z" transform="translate(-72.296)" fill="#007ab5"/>
    </g>
  </g>
</svg>
