<svg xmlns="http://www.w3.org/2000/svg" width="54" height="54" viewBox="0 0 54 54">
  <g id="Group_224" data-name="Group 224" transform="translate(-960 -4139)" opacity="0.75">
    <g id="Group_222" data-name="Group 222">
      <g id="right" transform="translate(960 4139)">
        <g id="Group_219" data-name="Group 219">
          <g id="Group_218" data-name="Group 218">
            <path id="Path_4605" data-name="Path 4605" d="M46.092,7.908A27,27,0,0,0,7.908,46.092,27,27,0,1,0,46.092,7.908ZM27,50.836A23.836,23.836,0,1,1,50.836,27,23.863,23.863,0,0,1,27,50.836Z" fill="#575757"/>
          </g>
        </g>
        <g id="Group_221" data-name="Group 221" transform="translate(13.637 17.873)">
          <g id="Group_220" data-name="Group 220">
            <path id="Path_4606" data-name="Path 4606" d="M155.563,169.93a1.582,1.582,0,0,0-2.237,0l-13.97,13.97L132,176.547a1.582,1.582,0,0,0-2.237,2.237l8.473,8.473a1.582,1.582,0,0,0,2.237,0l15.089-15.089A1.582,1.582,0,0,0,155.563,169.93Z" transform="translate(-129.301 -169.467)" fill="#575757"/>
          </g>
        </g>
      </g>
    </g>
  </g>
</svg>
